<svg xmlns="http://www.w3.org/2000/svg" xmlns:xlink="http://www.w3.org/1999/xlink" width="600" zoomAndPan="magnify" viewBox="0 0 450 449.999984" height="600" preserveAspectRatio="xMidYMid meet" version="1.2"><defs><clipPath id="c895ee80e8"><path d="M 114.183594 117.183594 L 336.183594 117.183594 L 336.183594 339.183594 L 114.183594 339.183594 Z M 114.183594 117.183594 "/></clipPath><clipPath id="2300e6ef08"><path d="M 170.179688 156.433594 L 279.679688 156.433594 L 279.679688 172 L 170.179688 172 Z M 170.179688 156.433594 "/></clipPath><clipPath id="3b653019de"><path d="M 170.179688 164.207031 C 170.179688 166.269531 170.996094 168.246094 172.457031 169.707031 C 173.914062 171.164062 175.890625 171.980469 177.953125 171.980469 L 272.046875 171.980469 C 274.109375 171.980469 276.085938 171.164062 277.542969 169.707031 C 279.003906 168.246094 279.820312 166.269531 279.820312 164.207031 C 279.820312 162.144531 279.003906 160.167969 277.542969 158.710938 C 276.085938 157.253906 274.109375 156.433594 272.046875 156.433594 L 177.953125 156.433594 C 175.890625 156.433594 173.914062 157.253906 172.457031 158.710938 C 170.996094 160.167969 170.179688 162.144531 170.179688 164.207031 Z M 170.179688 164.207031 "/></clipPath><clipPath id="c6ffd4df9e"><path d="M 118 201 L 181 201 L 181 330 L 118 330 Z M 118 201 "/></clipPath><clipPath id="2e88f80f35"><path d="M 114.1875 325.433594 L 167.042969 198.769531 L 185.039062 206.277344 L 132.183594 332.941406 Z M 114.1875 325.433594 "/></clipPath><clipPath id="a11aca67f0"><path d="M 114.1875 325.433594 L 167.042969 198.769531 L 185.039062 206.277344 L 132.183594 332.941406 Z M 114.1875 325.433594 "/></clipPath><clipPath id="2d07c03cee"><path d="M 114.1875 325.433594 L 167.042969 198.769531 L 185.039062 206.277344 L 132.183594 332.941406 Z M 114.1875 325.433594 "/></clipPath><clipPath id="261583c845"><path d="M 219 199 L 282 199 L 282 328 L 219 328 Z M 219 199 "/></clipPath><clipPath id="c2f69df575"><path d="M 215.3125 323.191406 L 268.164062 196.527344 L 286.160156 204.039062 L 233.308594 330.703125 Z M 215.3125 323.191406 "/></clipPath><clipPath id="9793ba5179"><path d="M 215.3125 323.191406 L 268.164062 196.527344 L 286.160156 204.039062 L 233.308594 330.703125 Z M 215.3125 323.191406 "/></clipPath><clipPath id="ccb8fe6616"><path d="M 215.3125 323.191406 L 268.164062 196.527344 L 286.160156 204.039062 L 233.308594 330.703125 Z M 215.3125 323.191406 "/></clipPath><clipPath id="5cb3abaa3d"><path d="M 270 199 L 328 199 L 328 330 L 270 330 Z M 270 199 "/></clipPath><clipPath id="9c934ce913"><path d="M 311.109375 332.921875 L 267.921875 202.644531 L 286.429688 196.507812 L 329.617188 326.785156 Z M 311.109375 332.921875 "/></clipPath><clipPath id="058fe47c09"><path d="M 311.109375 332.921875 L 267.921875 202.644531 L 286.429688 196.507812 L 329.617188 326.785156 Z M 311.109375 332.921875 "/></clipPath><clipPath id="641370430f"><path d="M 311.109375 332.921875 L 267.921875 202.644531 L 286.429688 196.507812 L 329.617188 326.785156 Z M 311.109375 332.921875 "/></clipPath><clipPath id="852d9bbc24"><path d="M 172 198 L 230 198 L 230 329 L 172 329 Z M 172 198 "/></clipPath><clipPath id="1a5ff7b73e"><path d="M 213.328125 331.800781 L 170.140625 201.523438 L 188.648438 195.386719 L 231.835938 325.664062 Z M 213.328125 331.800781 "/></clipPath><clipPath id="eff6eab6d7"><path d="M 213.328125 331.800781 L 170.140625 201.523438 L 188.648438 195.386719 L 231.835938 325.664062 Z M 213.328125 331.800781 "/></clipPath><clipPath id="b89dbe2ac2"><path d="M 213.328125 331.800781 L 170.140625 201.523438 L 188.648438 195.386719 L 231.835938 325.664062 Z M 213.328125 331.800781 "/></clipPath><clipPath id="28bdb787a8"><path d="M 163.269531 195.527344 L 190.414062 195.527344 L 190.414062 221.949219 L 163.269531 221.949219 Z M 163.269531 195.527344 "/></clipPath><clipPath id="32729c319c"><path d="M 176.792969 195.527344 C 169.324219 195.527344 163.269531 201.441406 163.269531 208.738281 C 163.269531 216.035156 169.324219 221.949219 176.792969 221.949219 C 184.261719 221.949219 190.3125 216.035156 190.3125 208.738281 C 190.3125 201.441406 184.261719 195.527344 176.792969 195.527344 Z M 176.792969 195.527344 "/></clipPath><clipPath id="a03b81a047"><path d="M 263.507812 198.582031 L 289.285156 198.582031 L 289.285156 225 L 263.507812 225 Z M 263.507812 198.582031 "/></clipPath><clipPath id="95382eb6a6"><path d="M 276.398438 198.582031 C 269.277344 198.582031 263.507812 204.496094 263.507812 211.789062 C 263.507812 219.085938 269.277344 225 276.398438 225 C 283.515625 225 289.285156 219.085938 289.285156 211.789062 C 289.285156 204.496094 283.515625 198.582031 276.398438 198.582031 Z M 276.398438 198.582031 "/></clipPath><clipPath id="588dad2961"><path d="M 115.675781 267.847656 L 146.691406 267.847656 L 146.691406 298.867188 L 115.675781 298.867188 Z M 115.675781 267.847656 "/></clipPath><clipPath id="be13b8b944"><path d="M 131.183594 267.847656 C 122.617188 267.847656 115.675781 274.792969 115.675781 283.355469 C 115.675781 291.921875 122.617188 298.867188 131.183594 298.867188 C 139.75 298.867188 146.691406 291.921875 146.691406 283.355469 C 146.691406 274.792969 139.75 267.847656 131.183594 267.847656 Z M 131.183594 267.847656 "/></clipPath><clipPath id="23694aa51a"><path d="M 304.046875 268.597656 L 335.066406 268.597656 L 335.066406 307.855469 L 304.046875 307.855469 Z M 304.046875 268.597656 "/></clipPath><clipPath id="73152da14f"><path d="M 319.558594 268.597656 C 310.992188 268.597656 304.046875 277.378906 304.046875 288.210938 C 304.046875 299.042969 310.992188 307.824219 319.558594 307.824219 C 328.121094 307.824219 335.066406 299.042969 335.066406 288.210938 C 335.066406 277.378906 328.121094 268.597656 319.558594 268.597656 Z M 319.558594 268.597656 "/></clipPath><clipPath id="a8a7b02976"><path d="M 212.109375 310.492188 L 237.890625 310.492188 L 237.890625 336.976562 L 212.109375 336.976562 Z M 212.109375 310.492188 "/></clipPath><clipPath id="391909526c"><path d="M 225 310.492188 C 217.882812 310.492188 212.109375 316.40625 212.109375 323.703125 C 212.109375 331 217.882812 336.914062 225 336.914062 C 232.117188 336.914062 237.890625 331 237.890625 323.703125 C 237.890625 316.40625 232.117188 310.492188 225 310.492188 Z M 225 310.492188 "/></clipPath></defs><g id="6070b5cbfe"><rect x="0" width="450" y="0" height="449.999984" style="fill:#ffffff;fill-opacity:1;stroke:none;"/><g clip-rule="nonzero" clip-path="url(#c895ee80e8)"><path style=" stroke:none;fill-rule:nonzero;fill:#000000;fill-opacity:1;" d="M 331.558594 117.519531 C 332.183594 117.835938 332.863281 118.0625 333.429688 118.472656 C 334.574219 119.304688 335.425781 120.476562 335.863281 121.824219 C 336.082031 122.488281 336.082031 123.207031 336.191406 123.898438 L 336.191406 332.488281 C 336.082031 333.179688 336.082031 333.894531 335.863281 334.558594 C 335.425781 335.90625 334.574219 337.078125 333.429688 337.910156 C 332.863281 338.324219 332.222656 338.648438 331.558594 338.863281 C 330.894531 339.082031 330.179688 339.082031 329.488281 339.191406 L 120.898438 339.191406 C 120.207031 339.082031 119.488281 339.082031 118.824219 338.863281 C 118.160156 338.648438 117.519531 338.324219 116.957031 337.910156 C 115.808594 337.078125 114.957031 335.90625 114.519531 334.558594 C 114.304688 333.894531 114.300781 333.179688 114.191406 332.488281 L 114.191406 123.898438 C 114.300781 123.207031 114.304688 122.488281 114.519531 121.824219 C 114.738281 121.160156 115.0625 120.519531 115.472656 119.957031 C 116.304688 118.808594 117.476562 117.957031 118.824219 117.519531 C 119.488281 117.304688 120.207031 117.300781 120.898438 117.191406 L 329.488281 117.191406 C 330.179688 117.300781 330.867188 117.410156 331.558594 117.519531 Z M 127.601562 130.601562 L 127.601562 325.78125 L 322.78125 325.78125 L 322.78125 130.601562 C 257.722656 130.601562 192.660156 130.601562 127.601562 130.601562 Z M 127.601562 130.601562 "/></g><g clip-rule="nonzero" clip-path="url(#2300e6ef08)"><g clip-rule="nonzero" clip-path="url(#3b653019de)"><path style=" stroke:none;fill-rule:nonzero;fill:#e43334;fill-opacity:1;" d="M 177.429688 171.933594 C 189.816406 171.746094 202.203125 171.558594 214.585938 171.375 C 226.914062 171.191406 239.234375 171.003906 251.558594 170.820312 C 258.507812 170.714844 265.460938 170.609375 272.414062 170.503906 C 274.230469 170.476562 276.082031 169.738281 277.375 168.449219 C 278.0625 167.8125 278.546875 167.058594 278.828125 166.191406 C 279.269531 165.355469 279.472656 164.449219 279.433594 163.484375 C 279.351562 161.667969 278.757812 159.789062 277.378906 158.519531 C 276.015625 157.265625 274.304688 156.433594 272.414062 156.460938 C 260.027344 156.648438 247.640625 156.835938 235.253906 157.019531 C 222.929688 157.203125 210.609375 157.390625 198.285156 157.574219 C 191.332031 157.683594 184.378906 157.785156 177.429688 157.890625 C 175.613281 157.917969 173.757812 158.65625 172.464844 159.945312 C 171.78125 160.585938 171.296875 161.335938 171.011719 162.207031 C 170.574219 163.046875 170.371094 163.949219 170.40625 164.914062 C 170.488281 166.730469 171.085938 168.613281 172.464844 169.878906 C 173.828125 171.125 175.535156 171.960938 177.429688 171.933594 Z M 177.429688 171.933594 "/></g></g><g clip-rule="nonzero" clip-path="url(#c6ffd4df9e)"><g clip-rule="nonzero" clip-path="url(#2e88f80f35)"><g clip-rule="nonzero" clip-path="url(#a11aca67f0)"><g clip-rule="nonzero" clip-path="url(#2d07c03cee)"><path style=" stroke:none;fill-rule:nonzero;fill:#000000;fill-opacity:1;" d="M 135.652344 324.566406 C 141.414062 310.144531 147.179688 295.71875 152.945312 281.296875 C 158.683594 266.945312 164.417969 252.597656 170.15625 238.246094 C 173.390625 230.152344 176.625 222.054688 179.859375 213.960938 C 180.707031 211.847656 180.746094 209.34375 179.875 207.222656 C 179.46875 206.121094 178.828125 205.195312 177.957031 204.449219 C 177.199219 203.535156 176.25 202.863281 175.113281 202.4375 C 172.964844 201.65625 170.496094 201.433594 168.363281 202.414062 C 166.25 203.386719 164.457031 204.964844 163.574219 207.164062 C 157.8125 221.585938 152.046875 236.011719 146.28125 250.433594 C 140.542969 264.785156 134.808594 279.136719 129.070312 293.488281 C 125.839844 301.585938 122.605469 309.679688 119.367188 317.773438 C 118.523438 319.886719 118.484375 322.390625 119.355469 324.511719 C 119.765625 325.613281 120.402344 326.535156 121.277344 327.289062 C 122.035156 328.203125 122.984375 328.871094 124.121094 329.296875 C 126.265625 330.078125 128.734375 330.300781 130.871094 329.320312 C 132.976562 328.34375 134.769531 326.769531 135.652344 324.566406 Z M 135.652344 324.566406 "/></g></g></g></g><g clip-rule="nonzero" clip-path="url(#261583c845)"><g clip-rule="nonzero" clip-path="url(#c2f69df575)"><g clip-rule="nonzero" clip-path="url(#9793ba5179)"><g clip-rule="nonzero" clip-path="url(#ccb8fe6616)"><path style=" stroke:none;fill-rule:nonzero;fill:#000000;fill-opacity:1;" d="M 236.777344 322.328125 C 242.539062 307.902344 248.304688 293.476562 254.070312 279.058594 C 259.808594 264.707031 265.542969 250.355469 271.277344 236.003906 C 274.515625 227.910156 277.75 219.8125 280.984375 211.71875 C 281.832031 209.605469 281.871094 207.101562 281 204.980469 C 280.59375 203.882812 279.953125 202.957031 279.082031 202.207031 C 278.324219 201.292969 277.375 200.625 276.238281 200.199219 C 274.089844 199.414062 271.621094 199.191406 269.488281 200.175781 C 267.375 201.148438 265.582031 202.722656 264.699219 204.925781 C 258.9375 219.347656 253.171875 233.773438 247.40625 248.195312 C 241.667969 262.546875 235.933594 276.894531 230.195312 291.246094 C 226.964844 299.34375 223.726562 307.4375 220.492188 315.53125 C 219.648438 317.648438 219.609375 320.148438 220.480469 322.269531 C 220.890625 323.371094 221.527344 324.296875 222.402344 325.046875 C 223.160156 325.960938 224.109375 326.628906 225.246094 327.054688 C 227.390625 327.839844 229.859375 328.0625 231.992188 327.078125 C 234.101562 326.105469 235.894531 324.53125 236.777344 322.328125 Z M 236.777344 322.328125 "/></g></g></g></g><g clip-rule="nonzero" clip-path="url(#5cb3abaa3d)"><g clip-rule="nonzero" clip-path="url(#9c934ce913)"><g clip-rule="nonzero" clip-path="url(#058fe47c09)"><g clip-rule="nonzero" clip-path="url(#641370430f)"><path style=" stroke:none;fill-rule:nonzero;fill:#000000;fill-opacity:1;" d="M 326.742188 318.1875 C 321.632812 303.519531 316.523438 288.851562 311.414062 274.183594 C 306.332031 259.585938 301.246094 244.992188 296.164062 230.398438 C 293.296875 222.167969 290.429688 213.933594 287.5625 205.699219 C 286.8125 203.550781 285.203125 201.632812 283.152344 200.605469 C 282.125 200.042969 281.035156 199.761719 279.882812 199.769531 C 278.714844 199.574219 277.558594 199.695312 276.417969 200.117188 C 274.285156 200.933594 272.277344 202.386719 271.308594 204.527344 C 270.351562 206.648438 270.035156 209.015625 270.8125 211.253906 C 275.921875 225.921875 281.03125 240.589844 286.140625 255.257812 C 291.222656 269.855469 296.308594 284.445312 301.390625 299.042969 C 304.261719 307.277344 307.128906 315.507812 309.996094 323.738281 C 310.746094 325.890625 312.355469 327.804688 314.40625 328.835938 C 315.4375 329.398438 316.523438 329.675781 317.675781 329.667969 C 318.847656 329.863281 320.003906 329.746094 321.140625 329.320312 C 323.273438 328.503906 325.285156 327.050781 326.25 324.910156 C 327.203125 322.792969 327.523438 320.429688 326.742188 318.1875 Z M 326.742188 318.1875 "/></g></g></g></g><g clip-rule="nonzero" clip-path="url(#852d9bbc24)"><g clip-rule="nonzero" clip-path="url(#1a5ff7b73e)"><g clip-rule="nonzero" clip-path="url(#eff6eab6d7)"><g clip-rule="nonzero" clip-path="url(#b89dbe2ac2)"><path style=" stroke:none;fill-rule:nonzero;fill:#000000;fill-opacity:1;" d="M 228.960938 317.066406 C 223.851562 302.398438 218.742188 287.730469 213.632812 273.0625 C 208.550781 258.464844 203.464844 243.875 198.382812 229.277344 C 195.515625 221.046875 192.648438 212.8125 189.78125 204.582031 C 189.03125 202.429688 187.421875 200.515625 185.371094 199.484375 C 184.34375 198.921875 183.253906 198.644531 182.101562 198.648438 C 180.933594 198.457031 179.777344 198.574219 178.636719 199 C 176.503906 199.8125 174.496094 201.265625 173.527344 203.40625 C 172.570312 205.527344 172.253906 207.894531 173.03125 210.132812 C 178.140625 224.800781 183.25 239.46875 188.359375 254.136719 C 193.441406 268.734375 198.527344 283.328125 203.609375 297.921875 C 206.480469 306.15625 209.347656 314.386719 212.214844 322.617188 C 212.964844 324.769531 214.574219 326.683594 216.625 327.714844 C 217.65625 328.277344 218.742188 328.554688 219.894531 328.550781 C 221.066406 328.742188 222.222656 328.625 223.359375 328.199219 C 225.492188 327.382812 227.503906 325.933594 228.46875 323.789062 C 229.421875 321.671875 229.742188 319.308594 228.960938 317.066406 Z M 228.960938 317.066406 "/></g></g></g></g><g clip-rule="nonzero" clip-path="url(#28bdb787a8)"><g clip-rule="nonzero" clip-path="url(#32729c319c)"><path style=" stroke:none;fill-rule:nonzero;fill:#000000;fill-opacity:1;" d="M 163.269531 195.527344 L 190.308594 195.527344 L 190.308594 221.949219 L 163.269531 221.949219 Z M 163.269531 195.527344 "/></g></g><g clip-rule="nonzero" clip-path="url(#a03b81a047)"><g clip-rule="nonzero" clip-path="url(#95382eb6a6)"><path style=" stroke:none;fill-rule:nonzero;fill:#000000;fill-opacity:1;" d="M 263.507812 198.582031 L 289.285156 198.582031 L 289.285156 224.964844 L 263.507812 224.964844 Z M 263.507812 198.582031 "/></g></g><g clip-rule="nonzero" clip-path="url(#588dad2961)"><g clip-rule="nonzero" clip-path="url(#be13b8b944)"><path style=" stroke:none;fill-rule:nonzero;fill:#000000;fill-opacity:1;" d="M 115.675781 267.847656 L 146.691406 267.847656 L 146.691406 298.867188 L 115.675781 298.867188 Z M 115.675781 267.847656 "/></g></g><g clip-rule="nonzero" clip-path="url(#23694aa51a)"><g clip-rule="nonzero" clip-path="url(#73152da14f)"><path style=" stroke:none;fill-rule:nonzero;fill:#000000;fill-opacity:1;" d="M 304.046875 268.597656 L 335.066406 268.597656 L 335.066406 307.855469 L 304.046875 307.855469 Z M 304.046875 268.597656 "/></g></g><g clip-rule="nonzero" clip-path="url(#a8a7b02976)"><g clip-rule="nonzero" clip-path="url(#391909526c)"><path style=" stroke:none;fill-rule:nonzero;fill:#000000;fill-opacity:1;" d="M 212.109375 310.492188 L 237.890625 310.492188 L 237.890625 336.878906 L 212.109375 336.878906 Z M 212.109375 310.492188 "/></g></g></g></svg>